0
SECTION
2
HEADER
9
$INSUNITS
70
1
9
$ACADVER
1
AC1009
0
ENDSEC
0
SECTION
2
TABLES
0
TABLE
2
LAYER
70
6
0
LAYER
2
L1-WALLS
70
0
62
7
6
CONTINUOUS
0
LAYER
2
L1-TEXT
70
0
62
8
6
CONTINUOUS
0
LAYER
2
L2-WALLS-SCANNED
70
0
62
7
6
CONTINUOUS
0
LAYER
2
L2-WALLS-OWNER
70
0
62
30
6
CONTINUOUS
0
LAYER
2
L2-TEXT
70
0
62
8
6
CONTINUOUS
0
LAYER
2
NOTES
70
0
62
1
6
CONTINUOUS
0
ENDTAB
0
ENDSEC
0
SECTION
2
ENTITIES
0
LINE
8
L1-WALLS
10
168.1200
20
190.5800
30
0.0
11
352.4500
21
190.5800
31
0.0
0
LINE
8
L1-WALLS
10
352.4500
20
190.5800
30
0.0
11
352.4500
21
-0.0000
31
0.0
0
LINE
8
L1-WALLS
10
352.4500
20
-0.0000
30
0.0
11
168.1200
21
-0.0000
31
0.0
0
LINE
8
L1-WALLS
10
168.1200
20
-0.0000
30
0.0
11
168.1200
21
190.5800
31
0.0
0
TEXT
8
L1-TEXT
10
260.2850
20
104.2900
30
0.0
40
7.0000
1
01 LIVING ROOM
72
1
11
260.2850
21
104.2900
31
0.0
0
TEXT
8
L1-TEXT
10
260.2850
20
94.2900
30
0.0
40
4.5000
1
243.96 SF / 22.66 SQ M
72
1
11
260.2850
21
94.2900
31
0.0
0
TEXT
8
L1-TEXT
10
260.2850
20
86.2900
30
0.0
40
4.5000
1
CLG 6'-1" - 10'-7"
72
1
11
260.2850
21
86.2900
31
0.0
0
LINE
8
L1-WALLS
10
0.0000
20
178.7800
30
0.0
11
162.6200
21
178.7800
31
0.0
0
LINE
8
L1-WALLS
10
162.6200
20
178.7800
30
0.0
11
162.6200
21
-0.0000
31
0.0
0
LINE
8
L1-WALLS
10
162.6200
20
-0.0000
30
0.0
11
107.7800
21
-54.2600
31
0.0
0
LINE
8
L1-WALLS
10
107.7800
20
-54.2600
30
0.0
11
0.0000
21
-54.2600
31
0.0
0
LINE
8
L1-WALLS
10
0.0000
20
-54.2600
30
0.0
11
0.0000
21
178.7800
31
0.0
0
TEXT
8
L1-TEXT
10
78.7344
20
75.2823
30
0.0
40
7.0000
1
02 DINING ROOM
72
1
11
78.7344
21
75.2823
31
0.0
0
TEXT
8
L1-TEXT
10
78.7344
20
65.2823
30
0.0
40
4.5000
1
252.84 SF / 23.49 SQ M
72
1
11
78.7344
21
65.2823
31
0.0
0
TEXT
8
L1-TEXT
10
78.7344
20
57.2823
30
0.0
40
4.5000
1
CLG 8'-1", VOID 17'-0"
72
1
11
78.7344
21
57.2823
31
0.0
0
LINE
8
L1-WALLS
10
-5.5000
20
57.7000
30
0.0
11
-5.5000
21
-42.2500
31
0.0
0
LINE
8
L1-WALLS
10
-5.5000
20
-42.2500
30
0.0
11
-31.2900
21
-42.2500
31
0.0
0
LINE
8
L1-WALLS
10
-31.2900
20
-42.2500
30
0.0
11
-31.2900
21
-81.5600
31
0.0
0
LINE
8
L1-WALLS
10
-31.2900
20
-81.5600
30
0.0
11
-51.6200
21
-101.8900
31
0.0
0
LINE
8
L1-WALLS
10
-51.6200
20
-101.8900
30
0.0
11
-170.3100
21
-101.8900
31
0.0
0
LINE
8
L1-WALLS
10
-170.3100
20
-101.8900
30
0.0
11
-194.8600
21
-77.3400
31
0.0
0
LINE
8
L1-WALLS
10
-194.8600
20
-77.3400
30
0.0
11
-269.3500
21
-77.3400
31
0.0
0
LINE
8
L1-WALLS
10
-269.3500
20
-77.3400
30
0.0
11
-269.3500
21
63.2300
31
0.0
0
LINE
8
L1-WALLS
10
-269.3500
20
63.2300
30
0.0
11
-260.1400
21
78.2700
31
0.0
0
LINE
8
L1-WALLS
10
-260.1400
20
78.2700
30
0.0
11
-126.7400
21
78.2700
31
0.0
0
LINE
8
L1-WALLS
10
-126.7400
20
78.2700
30
0.0
11
-126.7400
21
57.7000
31
0.0
0
LINE
8
L1-WALLS
10
-126.7400
20
57.7000
30
0.0
11
-5.5000
21
57.7000
31
0.0
0
TEXT
8
L1-TEXT
10
-141.9151
20
-1.0587
30
0.0
40
7.0000
1
03 KITCHEN
72
1
11
-141.9151
21
-1.0587
31
0.0
0
TEXT
8
L1-TEXT
10
-141.9151
20
-11.0587
30
0.0
40
4.5000
1
~285 SF / ~26.48 SQ M
72
1
11
-141.9151
21
-11.0587
31
0.0
0
TEXT
8
L1-TEXT
10
-141.9151
20
-19.0587
30
0.0
40
4.5000
1
CLG NOT MEASURED
72
1
11
-141.9151
21
-19.0587
31
0.0
0
LINE
8
L1-WALLS
10
-274.8500
20
-16.9000
30
0.0
11
-368.3500
21
-22.8000
31
0.0
0
LINE
8
L1-WALLS
10
-368.3500
20
-22.8000
30
0.0
11
-482.5500
21
72.2000
31
0.0
0
LINE
8
L1-WALLS
10
-482.5500
20
72.2000
30
0.0
11
-485.5500
21
121.2000
31
0.0
0
LINE
8
L1-WALLS
10
-485.5500
20
121.2000
30
0.0
11
-311.9500
21
137.5000
31
0.0
0
LINE
8
L1-WALLS
10
-311.9500
20
137.5000
30
0.0
11
-277.8500
21
109.2000
31
0.0
0
LINE
8
L1-WALLS
10
-277.8500
20
109.2000
30
0.0
11
-271.8500
21
63.2000
31
0.0
0
LINE
8
L1-WALLS
10
-271.8500
20
63.2000
30
0.0
11
-274.8500
21
-16.9000
31
0.0
0
TEXT
8
L1-TEXT
10
-365.0063
20
71.8646
30
0.0
40
7.0000
1
04 LIVING ROOM 2
72
1
11
-365.0063
21
71.8646
31
0.0
0
TEXT
8
L1-TEXT
10
-365.0063
20
61.8646
30
0.0
40
4.5000
1
~180 SF / ~16.72 SQ M
72
1
11
-365.0063
21
61.8646
31
0.0
0
TEXT
8
L1-TEXT
10
-365.0063
20
53.8646
30
0.0
40
4.5000
1
CLG 9'-0"
72
1
11
-365.0063
21
53.8646
31
0.0
0
LINE
8
L1-WALLS
10
-277.8500
20
109.2000
30
0.0
11
-311.9500
21
137.5000
31
0.0
0
LINE
8
L1-WALLS
10
-311.9500
20
137.5000
30
0.0
11
-176.6900
21
295.3600
31
0.0
0
LINE
8
L1-WALLS
10
-176.6900
20
295.3600
30
0.0
11
-142.5900
21
267.0600
31
0.0
0
LINE
8
L1-WALLS
10
-142.5900
20
267.0600
30
0.0
11
-277.8500
21
109.2000
31
0.0
0
TEXT
8
L1-TEXT
10
-227.2700
20
211.2800
30
0.0
40
7.0000
1
05 CORRIDOR
72
1
11
-227.2700
21
211.2800
31
0.0
0
TEXT
8
L1-TEXT
10
-227.2700
20
201.2800
30
0.0
40
4.5000
1
~64 SF / ~5.95 SQ M
72
1
11
-227.2700
21
201.2800
31
0.0
0
TEXT
8
L1-TEXT
10
-227.2700
20
193.2800
30
0.0
40
4.5000
1
CLG 8'-0"
72
1
11
-227.2700
21
193.2800
31
0.0
0
LINE
8
L1-WALLS
10
-249.5700
20
142.2100
30
0.0
11
-198.7800
21
201.4800
31
0.0
0
LINE
8
L1-WALLS
10
-198.7800
20
201.4800
30
0.0
11
-156.4700
21
165.2300
31
0.0
0
LINE
8
L1-WALLS
10
-156.4700
20
165.2300
30
0.0
11
-152.0700
21
108.5700
31
0.0
0
LINE
8
L1-WALLS
10
-152.0700
20
108.5700
30
0.0
11
-205.4800
21
104.4300
31
0.0
0
LINE
8
L1-WALLS
10
-205.4800
20
104.4300
30
0.0
11
-249.5700
21
142.2100
31
0.0
0
TEXT
8
L1-TEXT
10
-194.7288
20
155.2244
30
0.0
40
7.0000
1
06 BATHROOM
72
1
11
-194.7288
21
155.2244
31
0.0
0
TEXT
8
L1-TEXT
10
-194.7288
20
145.2244
30
0.0
40
4.5000
1
41.41 SF / 3.85 SQ M
72
1
11
-194.7288
21
145.2244
31
0.0
0
TEXT
8
L1-TEXT
10
-194.7288
20
137.2244
30
0.0
40
4.5000
1
CLG 8'-0"
72
1
11
-194.7288
21
137.2244
31
0.0
0
LINE
8
L1-WALLS
10
-196.6900
20
203.9200
30
0.0
11
-157.5100
21
249.6600
31
0.0
0
LINE
8
L1-WALLS
10
-157.5100
20
249.6600
30
0.0
11
-93.4000
21
191.9900
31
0.0
0
LINE
8
L1-WALLS
10
-93.4000
20
191.9900
30
0.0
11
-87.2300
21
112.6600
31
0.0
0
LINE
8
L1-WALLS
10
-87.2300
20
112.6600
30
0.0
11
-150.2000
21
107.9400
31
0.0
0
LINE
8
L1-WALLS
10
-150.2000
20
107.9400
30
0.0
11
-154.3500
21
165.4000
31
0.0
0
LINE
8
L1-WALLS
10
-154.3500
20
165.4000
30
0.0
11
-196.6900
21
203.9200
31
0.0
0
TEXT
8
L1-TEXT
10
-134.2301
20
183.4557
30
0.0
40
7.0000
1
07 LAUNDRY
72
1
11
-134.2301
21
183.4557
31
0.0
0
TEXT
8
L1-TEXT
10
-134.2301
20
173.4557
30
0.0
40
4.5000
1
60.08 SF / 5.58 SQ M
72
1
11
-134.2301
21
173.4557
31
0.0
0
TEXT
8
L1-TEXT
10
-134.2301
20
165.4557
30
0.0
40
4.5000
1
CLG 8'-0"
72
1
11
-134.2301
21
165.4557
31
0.0
0
LINE
8
L1-WALLS
10
-176.6900
20
295.3600
30
0.0
11
0.0000
21
300.9000
31
0.0
0
LINE
8
L1-WALLS
10
0.0000
20
300.9000
30
0.0
11
0.0000
21
178.7800
31
0.0
0
LINE
8
L1-WALLS
10
0.0000
20
178.7800
30
0.0
11
-5.5000
21
57.7000
31
0.0
0
LINE
8
L1-WALLS
10
-5.5000
20
57.7000
30
0.0
11
-61.0000
21
57.7000
31
0.0
0
LINE
8
L1-WALLS
10
-61.0000
20
57.7000
30
0.0
11
-61.0000
21
178.8000
31
0.0
0
LINE
8
L1-WALLS
10
-61.0000
20
178.8000
30
0.0
11
-142.5900
21
267.0600
31
0.0
0
LINE
8
L1-WALLS
10
-142.5900
20
267.0600
30
0.0
11
-176.6900
21
295.3600
31
0.0
0
TEXT
8
L1-TEXT
10
-52.1373
20
214.0256
30
0.0
40
7.0000
1
08 ENTRY SPACE
72
1
11
-52.1373
21
214.0256
31
0.0
0
TEXT
8
L1-TEXT
10
-52.1373
20
204.0256
30
0.0
40
4.5000
1
~146 SF / ~13.56 SQ M
72
1
11
-52.1373
21
204.0256
31
0.0
0
TEXT
8
L1-TEXT
10
-52.1373
20
196.0256
30
0.0
40
4.5000
1
CLG 17'-0", LEG 8'-0"
72
1
11
-52.1373
21
196.0256
31
0.0
0
LINE
8
L1-WALLS
10
162.0600
20
296.0600
30
0.0
11
162.0600
21
187.6200
31
0.0
0
LINE
8
L1-WALLS
10
162.0600
20
187.6200
30
0.0
11
28.1300
21
187.6200
31
0.0
0
LINE
8
L1-WALLS
10
28.1300
20
187.6200
30
0.0
11
28.1300
21
227.9500
31
0.0
0
LINE
8
L1-WALLS
10
28.1300
20
227.9500
30
0.0
11
0.0000
21
227.9500
31
0.0
0
LINE
8
L1-WALLS
10
0.0000
20
227.9500
30
0.0
11
0.0000
21
296.0600
31
0.0
0
LINE
8
L1-WALLS
10
0.0000
20
296.0600
30
0.0
11
162.0600
21
296.0600
31
0.0
0
TEXT
8
L1-TEXT
10
85.6513
20
253.1901
30
0.0
40
7.0000
1
09 STUDY
72
1
11
85.6513
21
253.1901
31
0.0
0
TEXT
8
L1-TEXT
10
85.6513
20
243.1901
30
0.0
40
4.5000
1
114.16 SF / 10.61 SQ M
72
1
11
85.6513
21
243.1901
31
0.0
0
TEXT
8
L1-TEXT
10
85.6513
20
235.1901
30
0.0
40
4.5000
1
CLG NOT MEASURED
72
1
11
85.6513
21
235.1901
31
0.0
0
TEXT
8
NOTES
10
-66.5500
20
-141.8900
30
0.0
40
12.0000
1
LONG ROAD RESIDENCE - LEVEL 1 - 128.90 SQ M / 1387.5 SF
72
1
11
-66.5500
21
-141.8900
31
0.0
0
TEXT
8
NOTES
10
-66.5500
20
-159.8900
30
0.0
40
6.0000
1
UNITS: INCHES. FROM ROOM SCANS AUG 6 2026. KITCHEN AND STUDY CEILINGS NEVER MEASURED.
72
1
11
-66.5500
21
-159.8900
31
0.0
0
ENDSEC
0
EOF
