0
SECTION
2
HEADER
9
$INSUNITS
70
1
9
$ACADVER
1
AC1009
0
ENDSEC
0
SECTION
2
TABLES
0
TABLE
2
LAYER
70
6
0
LAYER
2
L1-WALLS
70
0
62
7
6
CONTINUOUS
0
LAYER
2
L1-TEXT
70
0
62
8
6
CONTINUOUS
0
LAYER
2
L2-WALLS-SCANNED
70
0
62
7
6
CONTINUOUS
0
LAYER
2
L2-WALLS-OWNER
70
0
62
30
6
CONTINUOUS
0
LAYER
2
L2-TEXT
70
0
62
8
6
CONTINUOUS
0
LAYER
2
NOTES
70
0
62
1
6
CONTINUOUS
0
ENDTAB
0
ENDSEC
0
SECTION
2
ENTITIES
0
LINE
8
L2-WALLS-SCANNED
10
0.0000
20
0.0000
30
0.0
11
90.9500
21
0.0000
31
0.0
0
LINE
8
L2-WALLS-SCANNED
10
90.9500
20
0.0000
30
0.0
11
90.9500
21
-27.2500
31
0.0
0
LINE
8
L2-WALLS-SCANNED
10
90.9500
20
-27.2500
30
0.0
11
134.6700
21
-27.2500
31
0.0
0
LINE
8
L2-WALLS-SCANNED
10
134.6700
20
-27.2500
30
0.0
11
134.6700
21
132.7100
31
0.0
0
LINE
8
L2-WALLS-SCANNED
10
134.6700
20
132.7100
30
0.0
11
0.0000
21
132.7100
31
0.0
0
LINE
8
L2-WALLS-SCANNED
10
0.0000
20
132.7100
30
0.0
11
0.0000
21
0.0000
31
0.0
0
TEXT
8
L2-TEXT
10
70.1770
20
70.3566
30
0.0
40
7.0000
1
01 BEDROOM 1
72
1
11
70.1770
21
70.3566
31
0.0
0
TEXT
8
L2-TEXT
10
70.1770
20
60.3566
30
0.0
40
4.5000
1
132.38 SF / 12.30 SQ M
72
1
11
70.1770
21
60.3566
31
0.0
0
TEXT
8
L2-TEXT
10
70.1770
20
52.3566
30
0.0
40
4.5000
1
CLG 7'-0" AT WALL, CENTRE NOT MEASURED
72
1
11
70.1770
21
52.3566
31
0.0
0
LINE
8
L2-WALLS-SCANNED
10
242.5320
20
-64.4720
30
0.0
11
183.6000
21
-64.4720
31
0.0
0
LINE
8
L2-WALLS-SCANNED
10
183.6000
20
-64.4720
30
0.0
11
183.6000
21
-219.2520
31
0.0
0
LINE
8
L2-WALLS-SCANNED
10
183.6000
20
-219.2520
30
0.0
11
216.1680
21
-219.2520
31
0.0
0
LINE
8
L2-WALLS-SCANNED
10
216.1680
20
-219.2520
30
0.0
11
216.1680
21
-179.0424
31
0.0
0
LINE
8
L2-WALLS-SCANNED
10
216.1680
20
-179.0424
30
0.0
11
242.5320
21
-179.0424
31
0.0
0
LINE
8
L2-WALLS-SCANNED
10
242.5320
20
-179.0424
30
0.0
11
242.5320
21
-64.4720
31
0.0
0
TEXT
8
L2-TEXT
10
210.9246
20
-125.3289
30
0.0
40
7.0000
1
02 RESTROOM
72
1
11
210.9246
21
-125.3289
31
0.0
0
TEXT
8
L2-TEXT
10
210.9246
20
-135.3289
30
0.0
40
4.5000
1
55.98 SF / 5.20 SQ M
72
1
11
210.9246
21
-135.3289
31
0.0
0
TEXT
8
L2-TEXT
10
210.9246
20
-143.3289
30
0.0
40
4.5000
1
CLG 8'-0" OWNER
72
1
11
210.9246
21
-143.3289
31
0.0
0
LINE
8
L2-WALLS-SCANNED
10
60.0000
20
-353.8800
30
0.0
11
26.3040
21
-353.8800
31
0.0
0
LINE
8
L2-WALLS-SCANNED
10
26.3040
20
-353.8800
30
0.0
11
-26.7120
21
-301.9800
31
0.0
0
LINE
8
L2-WALLS-SCANNED
10
-26.7120
20
-301.9800
30
0.0
11
-48.5640
21
-325.6560
31
0.0
0
LINE
8
L2-WALLS-SCANNED
10
-48.5640
20
-325.6560
30
0.0
11
-85.0680
21
-325.6560
31
0.0
0
LINE
8
L2-WALLS-SCANNED
10
-85.0680
20
-325.6560
30
0.0
11
-85.0680
21
-266.1720
31
0.0
0
LINE
8
L2-WALLS-SCANNED
10
-85.0680
20
-266.1720
30
0.0
11
-96.0480
21
-266.1720
31
0.0
0
LINE
8
L2-WALLS-SCANNED
10
-96.0480
20
-266.1720
30
0.0
11
-96.0480
21
-204.7440
31
0.0
0
LINE
8
L2-WALLS-SCANNED
10
-96.0480
20
-204.7440
30
0.0
11
-84.2160
21
-204.7440
31
0.0
0
LINE
8
L2-WALLS-SCANNED
10
-84.2160
20
-204.7440
30
0.0
11
-84.2160
21
-185.2920
31
0.0
0
LINE
8
L2-WALLS-SCANNED
10
-84.2160
20
-185.2920
30
0.0
11
60.0000
21
-185.2920
31
0.0
0
LINE
8
L2-WALLS-SCANNED
10
60.0000
20
-185.2920
30
0.0
11
60.0000
21
-353.8800
31
0.0
0
TEXT
8
L2-TEXT
10
-11.5848
20
-249.5016
30
0.0
40
7.0000
1
03 KID ROOM 2
72
1
11
-11.5848
21
-249.5016
31
0.0
0
TEXT
8
L2-TEXT
10
-11.5848
20
-259.5016
30
0.0
40
4.5000
1
151.62 SF / 14.09 SQ M
72
1
11
-11.5848
21
-259.5016
31
0.0
0
TEXT
8
L2-TEXT
10
-11.5848
20
-267.5016
30
0.0
40
4.5000
1
CLG 8'-0.85" SCANNED
72
1
11
-11.5848
21
-267.5016
31
0.0
0
LINE
8
L2-WALLS-SCANNED
10
269.8200
20
-219.2520
30
0.0
11
296.7240
21
-245.7000
31
0.0
0
LINE
8
L2-WALLS-SCANNED
10
296.7240
20
-245.7000
30
0.0
11
296.7240
21
-337.5480
31
0.0
0
LINE
8
L2-WALLS-SCANNED
10
296.7240
20
-337.5480
30
0.0
11
243.6960
21
-388.5240
31
0.0
0
LINE
8
L2-WALLS-SCANNED
10
243.6960
20
-388.5240
30
0.0
11
243.6960
21
-426.2640
31
0.0
0
LINE
8
L2-WALLS-SCANNED
10
243.6960
20
-426.2640
30
0.0
11
186.0960
21
-426.2640
31
0.0
0
LINE
8
L2-WALLS-SCANNED
10
186.0960
20
-426.2640
30
0.0
11
186.0960
21
-410.4240
31
0.0
0
LINE
8
L2-WALLS-SCANNED
10
186.0960
20
-410.4240
30
0.0
11
89.0760
21
-410.4240
31
0.0
0
LINE
8
L2-WALLS-SCANNED
10
89.0760
20
-410.4240
30
0.0
11
63.9960
21
-383.5800
31
0.0
0
LINE
8
L2-WALLS-SCANNED
10
63.9960
20
-383.5800
30
0.0
11
63.9960
21
-242.7480
31
0.0
0
LINE
8
L2-WALLS-SCANNED
10
63.9960
20
-242.7480
30
0.0
11
93.7680
21
-242.7480
31
0.0
0
LINE
8
L2-WALLS-SCANNED
10
93.7680
20
-242.7480
30
0.0
11
93.7680
21
-219.2520
31
0.0
0
LINE
8
L2-WALLS-SCANNED
10
93.7680
20
-219.2520
30
0.0
11
269.8200
21
-219.2520
31
0.0
0
TEXT
8
L2-TEXT
10
177.0566
20
-305.3530
30
0.0
40
7.0000
1
04 MASTER BEDROOM
72
1
11
177.0566
21
-305.3530
31
0.0
0
TEXT
8
L2-TEXT
10
177.0566
20
-315.3530
30
0.0
40
4.5000
1
288.18 SF / 26.77 SQ M
72
1
11
177.0566
21
-315.3530
31
0.0
0
TEXT
8
L2-TEXT
10
177.0566
20
-323.3530
30
0.0
40
4.5000
1
CLG 7'-2" WALL / 8'-0" CENTRE
72
1
11
177.0566
21
-323.3530
31
0.0
0
LINE
8
L2-WALLS-SCANNED
10
299.8680
20
-509.8440
30
0.0
11
299.8680
21
-593.7240
31
0.0
0
LINE
8
L2-WALLS-SCANNED
10
299.8680
20
-593.7240
30
0.0
11
145.6440
21
-593.7240
31
0.0
0
LINE
8
L2-WALLS-SCANNED
10
145.6440
20
-593.7240
30
0.0
11
145.6440
21
-509.2560
31
0.0
0
LINE
8
L2-WALLS-SCANNED
10
145.6440
20
-509.2560
30
0.0
11
188.0400
21
-509.2560
31
0.0
0
LINE
8
L2-WALLS-SCANNED
10
188.0400
20
-509.2560
30
0.0
11
188.0400
21
-482.7720
31
0.0
0
LINE
8
L2-WALLS-SCANNED
10
188.0400
20
-482.7720
30
0.0
11
188.0400
21
-426.2640
31
0.0
0
LINE
8
L2-WALLS-SCANNED
10
188.0400
20
-426.2640
30
0.0
11
241.7520
21
-426.2640
31
0.0
0
LINE
8
L2-WALLS-SCANNED
10
241.7520
20
-426.2640
30
0.0
11
241.7520
21
-446.4240
31
0.0
0
LINE
8
L2-WALLS-SCANNED
10
241.7520
20
-446.4240
30
0.0
11
249.1440
21
-446.4240
31
0.0
0
LINE
8
L2-WALLS-SCANNED
10
249.1440
20
-446.4240
30
0.0
11
249.1440
21
-509.8440
31
0.0
0
LINE
8
L2-WALLS-SCANNED
10
249.1440
20
-509.8440
30
0.0
11
299.8680
21
-509.8440
31
0.0
0
TEXT
8
L2-TEXT
10
221.3027
20
-519.8219
30
0.0
40
7.0000
1
05 MASTER BATH
72
1
11
221.3027
21
-519.8219
31
0.0
0
TEXT
8
L2-TEXT
10
221.3027
20
-529.8219
30
0.0
40
4.5000
1
124.44 SF / 11.56 SQ M
72
1
11
221.3027
21
-529.8219
31
0.0
0
TEXT
8
L2-TEXT
10
221.3027
20
-537.8219
30
0.0
40
4.5000
1
CLG 8'-0.61" SCANNED
72
1
11
221.3027
21
-537.8219
31
0.0
0
LINE
8
L2-WALLS-OWNER
10
24.6000
20
-42.0000
30
0.0
11
134.6700
21
-42.0000
31
0.0
0
LINE
8
L2-WALLS-OWNER
10
134.6700
20
-42.0000
30
0.0
11
134.6700
21
-74.4000
31
0.0
0
LINE
8
L2-WALLS-OWNER
10
134.6700
20
-74.4000
30
0.0
11
24.6000
21
-74.4000
31
0.0
0
LINE
8
L2-WALLS-OWNER
10
24.6000
20
-74.4000
30
0.0
11
24.6000
21
-42.0000
31
0.0
0
TEXT
8
L2-TEXT
10
79.6350
20
-49.2000
30
0.0
40
7.0000
1
06 STAIR
72
1
11
79.6350
21
-49.2000
31
0.0
0
TEXT
8
L2-TEXT
10
79.6350
20
-59.2000
30
0.0
40
4.5000
1
~24.8 SF / ~2.30 SQ M
72
1
11
79.6350
21
-59.2000
31
0.0
0
TEXT
8
L2-TEXT
10
79.6350
20
-67.2000
30
0.0
40
4.5000
1
OPEN TO LEVEL 1 - NOT MEASURED
72
1
11
79.6350
21
-67.2000
31
0.0
0
LINE
8
L2-WALLS-OWNER
10
-261.6000
20
-434.1240
30
0.0
11
98.4000
21
-434.1240
31
0.0
0
LINE
8
L2-WALLS-OWNER
10
98.4000
20
-434.1240
30
0.0
11
98.4000
21
-698.1240
31
0.0
0
LINE
8
L2-WALLS-OWNER
10
98.4000
20
-698.1240
30
0.0
11
-261.6000
21
-698.1240
31
0.0
0
LINE
8
L2-WALLS-OWNER
10
-261.6000
20
-698.1240
30
0.0
11
-261.6000
21
-434.1240
31
0.0
0
TEXT
8
L2-TEXT
10
-81.6000
20
-557.1240
30
0.0
40
7.0000
1
07 ATTIC ROOM
72
1
11
-81.6000
21
-557.1240
31
0.0
0
TEXT
8
L2-TEXT
10
-81.6000
20
-567.1240
30
0.0
40
4.5000
1
660.00 SF / 61.32 SQ M
72
1
11
-81.6000
21
-567.1240
31
0.0
0
TEXT
8
L2-TEXT
10
-81.6000
20
-575.1240
30
0.0
40
4.5000
1
EAVES 1'-0" RIDGE 8'-0" - NOT SCANNED
72
1
11
-81.6000
21
-575.1240
31
0.0
0
LINE
8
L2-WALLS-OWNER
10
134.6700
20
20.7500
30
0.0
11
183.6000
21
20.7500
31
0.0
0
LINE
8
L2-WALLS-OWNER
10
183.6000
20
20.7500
30
0.0
11
183.6000
21
-219.2500
31
0.0
0
LINE
8
L2-WALLS-OWNER
10
183.6000
20
-219.2500
30
0.0
11
60.0000
21
-219.2500
31
0.0
0
LINE
8
L2-WALLS-OWNER
10
60.0000
20
-219.2500
30
0.0
11
60.0000
21
-183.2500
31
0.0
0
LINE
8
L2-WALLS-OWNER
10
60.0000
20
-183.2500
30
0.0
11
134.6700
21
-183.2500
31
0.0
0
LINE
8
L2-WALLS-OWNER
10
134.6700
20
-183.2500
30
0.0
11
134.6700
21
20.7500
31
0.0
0
TEXT
8
L2-TEXT
10
147.6235
20
-109.2495
30
0.0
40
7.0000
1
08 CORRIDOR
72
1
11
147.6235
21
-109.2495
31
0.0
0
TEXT
8
L2-TEXT
10
147.6235
20
-119.2495
30
0.0
40
4.5000
1
NO AREA - WIDTH UNKNOWN
72
1
11
147.6235
21
-119.2495
31
0.0
0
TEXT
8
L2-TEXT
10
147.6235
20
-127.2495
30
0.0
40
4.5000
1
20'-0" LONG OWNER - NOT SCANNED
72
1
11
147.6235
21
-127.2495
31
0.0
0
TEXT
8
NOTES
10
19.1340
20
-738.1240
30
0.0
40
12.0000
1
LONG ROAD RESIDENCE - LEVEL 2 - REV 15
72
1
11
19.1340
21
-738.1240
31
0.0
0
TEXT
8
NOTES
10
19.1340
20
-756.1240
30
0.0
40
6.0000
1
UNITS: INCHES. LAYER L2-WALLS-SCANNED = MEASURED. LAYER L2-WALLS-OWNER = OWNER FIGURES, NOT SCANNED.
72
1
11
19.1340
21
-756.1240
31
0.0
0
TEXT
8
NOTES
10
19.1340
20
-770.1240
30
0.0
40
6.0000
1
SCANNED 770.46 SF / 71.58 SQ M ACROSS FIVE ROOMS. THE TWO LEVELS ARE NOT ALIGNED TO EACH OTHER - THE STAIR IS NOT MEASURED.
72
1
11
19.1340
21
-770.1240
31
0.0
0
ENDSEC
0
EOF
